<mxGraphModel dx="1389" dy="599" grid="1" gridSize="10" guides="1" tooltips="1" connect="1" arrows="1" fold="1" page="1" pageScale="1" pageWidth="850" pageHeight="1100" background="#FFFFFF" math="0" shadow="0">
  <root>
    <mxCell id="0" />
    <mxCell id="1" parent="0" />
    <mxCell id="hsGsgdo6mn84bb9oTtZE-3" value="" style="edgeStyle=none;curved=1;rounded=0;orthogonalLoop=1;jettySize=auto;html=1;fontSize=12;startSize=8;endSize=8;" parent="1" source="2" target="hsGsgdo6mn84bb9oTtZE-2" edge="1">
      <mxGeometry relative="1" as="geometry" />
    </mxCell>
    <mxCell id="2" value="เริ่มต้น" style="ellipse;whiteSpace=wrap;html=1;fillColor=#dae8fc;strokeColor=#6c8ebf;" parent="1" vertex="1">
      <mxGeometry x="350" y="40" width="100" height="50" as="geometry" />
    </mxCell>
    <mxCell id="hsGsgdo6mn84bb9oTtZE-15" style="edgeStyle=none;curved=1;rounded=0;orthogonalLoop=1;jettySize=auto;html=1;entryX=0.5;entryY=0;entryDx=0;entryDy=0;fontSize=12;startSize=8;endSize=8;" parent="1" source="hsGsgdo6mn84bb9oTtZE-2" target="hsGsgdo6mn84bb9oTtZE-4" edge="1">
      <mxGeometry relative="1" as="geometry">
        <mxPoint x="400" y="220.0000000000001" as="targetPoint" />
      </mxGeometry>
    </mxCell>
    <mxCell id="hsGsgdo6mn84bb9oTtZE-2" value="int&amp;nbsp; = n" style="whiteSpace=wrap;html=1;fillColor=#dae8fc;strokeColor=#6c8ebf;" parent="1" vertex="1">
      <mxGeometry x="340" y="120" width="120" height="60" as="geometry" />
    </mxCell>
    <mxCell id="hsGsgdo6mn84bb9oTtZE-9" value="" style="edgeStyle=none;curved=1;rounded=0;orthogonalLoop=1;jettySize=auto;html=1;fontSize=12;startSize=8;endSize=8;" parent="1" source="hsGsgdo6mn84bb9oTtZE-4" target="hsGsgdo6mn84bb9oTtZE-8" edge="1">
      <mxGeometry relative="1" as="geometry" />
    </mxCell>
    <mxCell id="hsGsgdo6mn84bb9oTtZE-4" value="Enter value : " style="shape=parallelogram;perimeter=parallelogramPerimeter;whiteSpace=wrap;html=1;fixedSize=1;fillColor=#dae8fc;strokeColor=#6c8ebf;" parent="1" vertex="1">
      <mxGeometry x="340" y="240" width="120" height="60" as="geometry" />
    </mxCell>
    <mxCell id="hsGsgdo6mn84bb9oTtZE-20" value="" style="edgeStyle=none;curved=1;rounded=0;orthogonalLoop=1;jettySize=auto;html=1;fontSize=12;startSize=8;endSize=8;entryX=0.5;entryY=0;entryDx=0;entryDy=0;" parent="1" source="hsGsgdo6mn84bb9oTtZE-8" target="hsGsgdo6mn84bb9oTtZE-22" edge="1">
      <mxGeometry relative="1" as="geometry">
        <mxPoint x="400" y="500" as="targetPoint" />
      </mxGeometry>
    </mxCell>
    <mxCell id="hsGsgdo6mn84bb9oTtZE-8" value="&lt;b&gt;Is it a number?&lt;/b&gt;" style="rhombus;whiteSpace=wrap;html=1;fillColor=#dae8fc;strokeColor=#6c8ebf;" parent="1" vertex="1">
      <mxGeometry x="360" y="370" width="80" height="80" as="geometry" />
    </mxCell>
    <mxCell id="0mnWKzgH_Vck4e7YlUkJ-3" style="edgeStyle=orthogonalEdgeStyle;rounded=0;orthogonalLoop=1;jettySize=auto;html=1;entryX=1;entryY=0.5;entryDx=0;entryDy=0;exitX=1;exitY=0.5;exitDx=0;exitDy=0;" edge="1" parent="1" source="hsGsgdo6mn84bb9oTtZE-8" target="hsGsgdo6mn84bb9oTtZE-57">
      <mxGeometry relative="1" as="geometry">
        <mxPoint x="660" y="410" as="sourcePoint" />
        <Array as="points">
          <mxPoint x="820" y="410" />
          <mxPoint x="820" y="1385" />
        </Array>
      </mxGeometry>
    </mxCell>
    <mxCell id="hsGsgdo6mn84bb9oTtZE-18" value="N" style="text;html=1;align=center;verticalAlign=middle;resizable=0;points=[];autosize=1;strokeColor=none;fillColor=none;fontSize=16;" parent="1" vertex="1">
      <mxGeometry x="780" y="1030" width="40" height="30" as="geometry" />
    </mxCell>
    <mxCell id="hsGsgdo6mn84bb9oTtZE-21" value="Y" style="text;html=1;align=center;verticalAlign=middle;resizable=0;points=[];autosize=1;strokeColor=none;fillColor=none;fontSize=16;" parent="1" vertex="1">
      <mxGeometry x="400" y="460" width="30" height="30" as="geometry" />
    </mxCell>
    <mxCell id="hsGsgdo6mn84bb9oTtZE-24" value="" style="edgeStyle=none;curved=1;rounded=0;orthogonalLoop=1;jettySize=auto;html=1;fontSize=12;startSize=8;endSize=8;" parent="1" source="hsGsgdo6mn84bb9oTtZE-22" target="hsGsgdo6mn84bb9oTtZE-23" edge="1">
      <mxGeometry relative="1" as="geometry" />
    </mxCell>
    <mxCell id="hsGsgdo6mn84bb9oTtZE-22" value="Series" style="rounded=0;whiteSpace=wrap;html=1;" parent="1" vertex="1">
      <mxGeometry x="340" y="510" width="120" height="60" as="geometry" />
    </mxCell>
    <mxCell id="hsGsgdo6mn84bb9oTtZE-26" value="" style="edgeStyle=none;curved=1;rounded=0;orthogonalLoop=1;jettySize=auto;html=1;fontSize=12;startSize=8;endSize=8;" parent="1" source="hsGsgdo6mn84bb9oTtZE-23" target="hsGsgdo6mn84bb9oTtZE-25" edge="1">
      <mxGeometry relative="1" as="geometry" />
    </mxCell>
    <mxCell id="hsGsgdo6mn84bb9oTtZE-39" value="" style="edgeStyle=none;curved=1;rounded=0;orthogonalLoop=1;jettySize=auto;html=1;fontSize=12;startSize=8;endSize=8;" parent="1" source="hsGsgdo6mn84bb9oTtZE-23" target="hsGsgdo6mn84bb9oTtZE-38" edge="1">
      <mxGeometry relative="1" as="geometry" />
    </mxCell>
    <mxCell id="hsGsgdo6mn84bb9oTtZE-23" value="&lt;div&gt;Is it an even&amp;nbsp;&lt;/div&gt;&lt;div&gt;number ?&amp;nbsp;&lt;/div&gt;&lt;div&gt;N % 2 != 0&lt;/div&gt;" style="rhombus;whiteSpace=wrap;html=1;rounded=0;" parent="1" vertex="1">
      <mxGeometry x="305" y="620" width="190" height="80" as="geometry" />
    </mxCell>
    <mxCell id="hsGsgdo6mn84bb9oTtZE-34" style="edgeStyle=none;curved=1;rounded=0;orthogonalLoop=1;jettySize=auto;html=1;exitX=0.5;exitY=1;exitDx=0;exitDy=0;entryX=0.5;entryY=0;entryDx=0;entryDy=0;fontSize=12;startSize=8;endSize=8;" parent="1" source="hsGsgdo6mn84bb9oTtZE-25" target="hsGsgdo6mn84bb9oTtZE-33" edge="1">
      <mxGeometry relative="1" as="geometry" />
    </mxCell>
    <mxCell id="hsGsgdo6mn84bb9oTtZE-25" value="&amp;nbsp;i = 1" style="whiteSpace=wrap;html=1;rounded=0;" parent="1" vertex="1">
      <mxGeometry x="140" y="630" width="120" height="60" as="geometry" />
    </mxCell>
    <mxCell id="hsGsgdo6mn84bb9oTtZE-53" style="edgeStyle=none;curved=1;rounded=0;orthogonalLoop=1;jettySize=auto;html=1;entryX=0;entryY=0.5;entryDx=0;entryDy=0;fontSize=12;startSize=8;endSize=8;" parent="1" source="hsGsgdo6mn84bb9oTtZE-29" target="hsGsgdo6mn84bb9oTtZE-51" edge="1">
      <mxGeometry relative="1" as="geometry" />
    </mxCell>
    <mxCell id="0mnWKzgH_Vck4e7YlUkJ-18" style="edgeStyle=orthogonalEdgeStyle;rounded=0;orthogonalLoop=1;jettySize=auto;html=1;entryX=0.5;entryY=0;entryDx=0;entryDy=0;" edge="1" parent="1" source="hsGsgdo6mn84bb9oTtZE-29" target="0mnWKzgH_Vck4e7YlUkJ-23">
      <mxGeometry relative="1" as="geometry">
        <mxPoint x="200" y="980" as="targetPoint" />
      </mxGeometry>
    </mxCell>
    <mxCell id="hsGsgdo6mn84bb9oTtZE-29" value="&amp;nbsp;i &amp;lt;= n" style="rhombus;whiteSpace=wrap;html=1;" parent="1" vertex="1">
      <mxGeometry x="160" y="780" width="80" height="80" as="geometry" />
    </mxCell>
    <mxCell id="0mnWKzgH_Vck4e7YlUkJ-13" value="" style="edgeStyle=orthogonalEdgeStyle;rounded=0;orthogonalLoop=1;jettySize=auto;html=1;" edge="1" parent="1" source="hsGsgdo6mn84bb9oTtZE-30" target="0mnWKzgH_Vck4e7YlUkJ-12">
      <mxGeometry relative="1" as="geometry" />
    </mxCell>
    <mxCell id="hsGsgdo6mn84bb9oTtZE-30" value="i = i + 2" style="whiteSpace=wrap;html=1;" parent="1" vertex="1">
      <mxGeometry x="140" y="1120" width="120" height="60" as="geometry" />
    </mxCell>
    <mxCell id="hsGsgdo6mn84bb9oTtZE-35" style="edgeStyle=none;curved=1;rounded=0;orthogonalLoop=1;jettySize=auto;html=1;exitX=0.5;exitY=1;exitDx=0;exitDy=0;entryX=0.5;entryY=0;entryDx=0;entryDy=0;fontSize=12;startSize=8;endSize=8;" parent="1" source="hsGsgdo6mn84bb9oTtZE-33" target="hsGsgdo6mn84bb9oTtZE-29" edge="1">
      <mxGeometry relative="1" as="geometry" />
    </mxCell>
    <mxCell id="hsGsgdo6mn84bb9oTtZE-33" value="" style="ellipse;whiteSpace=wrap;html=1;aspect=fixed;" parent="1" vertex="1">
      <mxGeometry x="185" y="720" width="30" height="30" as="geometry" />
    </mxCell>
    <mxCell id="hsGsgdo6mn84bb9oTtZE-44" style="edgeStyle=none;curved=1;rounded=0;orthogonalLoop=1;jettySize=auto;html=1;exitX=0.5;exitY=1;exitDx=0;exitDy=0;entryX=0.5;entryY=0;entryDx=0;entryDy=0;fontSize=12;startSize=8;endSize=8;" parent="1" source="hsGsgdo6mn84bb9oTtZE-38" target="hsGsgdo6mn84bb9oTtZE-43" edge="1">
      <mxGeometry relative="1" as="geometry" />
    </mxCell>
    <mxCell id="hsGsgdo6mn84bb9oTtZE-38" value="&amp;nbsp;i = n" style="whiteSpace=wrap;html=1;rounded=0;" parent="1" vertex="1">
      <mxGeometry x="550" y="630" width="120" height="60" as="geometry" />
    </mxCell>
    <mxCell id="hsGsgdo6mn84bb9oTtZE-52" style="edgeStyle=none;curved=1;rounded=0;orthogonalLoop=1;jettySize=auto;html=1;fontSize=12;startSize=8;endSize=8;" parent="1" source="hsGsgdo6mn84bb9oTtZE-40" target="hsGsgdo6mn84bb9oTtZE-51" edge="1">
      <mxGeometry relative="1" as="geometry" />
    </mxCell>
    <mxCell id="0mnWKzgH_Vck4e7YlUkJ-20" style="edgeStyle=orthogonalEdgeStyle;rounded=0;orthogonalLoop=1;jettySize=auto;html=1;entryX=0.5;entryY=0;entryDx=0;entryDy=0;" edge="1" parent="1" source="hsGsgdo6mn84bb9oTtZE-40" target="0mnWKzgH_Vck4e7YlUkJ-22">
      <mxGeometry relative="1" as="geometry">
        <mxPoint x="610" y="980" as="targetPoint" />
      </mxGeometry>
    </mxCell>
    <mxCell id="hsGsgdo6mn84bb9oTtZE-40" value="&amp;nbsp;i &amp;gt;= 0" style="rhombus;whiteSpace=wrap;html=1;rounded=0;" parent="1" vertex="1">
      <mxGeometry x="570" y="780" width="80" height="80" as="geometry" />
    </mxCell>
    <mxCell id="hsGsgdo6mn84bb9oTtZE-45" style="edgeStyle=none;curved=1;rounded=0;orthogonalLoop=1;jettySize=auto;html=1;exitX=0.5;exitY=1;exitDx=0;exitDy=0;entryX=0.5;entryY=0;entryDx=0;entryDy=0;fontSize=12;startSize=8;endSize=8;" parent="1" source="hsGsgdo6mn84bb9oTtZE-43" target="hsGsgdo6mn84bb9oTtZE-40" edge="1">
      <mxGeometry relative="1" as="geometry" />
    </mxCell>
    <mxCell id="hsGsgdo6mn84bb9oTtZE-43" value="" style="ellipse;whiteSpace=wrap;html=1;aspect=fixed;" parent="1" vertex="1">
      <mxGeometry x="595" y="720" width="30" height="30" as="geometry" />
    </mxCell>
    <mxCell id="0mnWKzgH_Vck4e7YlUkJ-11" value="" style="edgeStyle=orthogonalEdgeStyle;rounded=0;orthogonalLoop=1;jettySize=auto;html=1;" edge="1" parent="1" source="hsGsgdo6mn84bb9oTtZE-46" target="0mnWKzgH_Vck4e7YlUkJ-10">
      <mxGeometry relative="1" as="geometry" />
    </mxCell>
    <mxCell id="hsGsgdo6mn84bb9oTtZE-46" value="i = i - 2" style="whiteSpace=wrap;html=1;rounded=0;" parent="1" vertex="1">
      <mxGeometry x="550" y="1120" width="120" height="60" as="geometry" />
    </mxCell>
    <mxCell id="hsGsgdo6mn84bb9oTtZE-56" value="" style="edgeStyle=none;curved=1;rounded=0;orthogonalLoop=1;jettySize=auto;html=1;fontSize=12;startSize=8;endSize=8;entryX=0.5;entryY=0;entryDx=0;entryDy=0;exitX=0.5;exitY=1;exitDx=0;exitDy=0;" parent="1" source="hsGsgdo6mn84bb9oTtZE-51" target="hsGsgdo6mn84bb9oTtZE-57" edge="1">
      <mxGeometry relative="1" as="geometry">
        <mxPoint x="405" y="1410" as="targetPoint" />
        <mxPoint x="404.48275862068954" y="1100" as="sourcePoint" />
      </mxGeometry>
    </mxCell>
    <mxCell id="hsGsgdo6mn84bb9oTtZE-51" value="" style="ellipse;whiteSpace=wrap;html=1;aspect=fixed;" parent="1" vertex="1">
      <mxGeometry x="385" y="800" width="40" height="40" as="geometry" />
    </mxCell>
    <mxCell id="hsGsgdo6mn84bb9oTtZE-57" value="จบ" style="ellipse;whiteSpace=wrap;html=1;fillColor=#dae8fc;strokeColor=#6c8ebf;" parent="1" vertex="1">
      <mxGeometry x="350" y="1360" width="100" height="50" as="geometry" />
    </mxCell>
    <mxCell id="hsGsgdo6mn84bb9oTtZE-58" value="Y" style="text;html=1;align=center;verticalAlign=middle;resizable=0;points=[];autosize=1;strokeColor=none;fillColor=none;fontSize=16;" parent="1" vertex="1">
      <mxGeometry x="505" y="630" width="30" height="30" as="geometry" />
    </mxCell>
    <mxCell id="hsGsgdo6mn84bb9oTtZE-59" value="N" style="text;html=1;align=center;verticalAlign=middle;resizable=0;points=[];autosize=1;strokeColor=none;fillColor=none;fontSize=16;" parent="1" vertex="1">
      <mxGeometry x="270" y="630" width="40" height="30" as="geometry" />
    </mxCell>
    <mxCell id="hsGsgdo6mn84bb9oTtZE-60" value="N" style="text;html=1;align=center;verticalAlign=middle;resizable=0;points=[];autosize=1;strokeColor=none;fillColor=none;fontSize=16;" parent="1" vertex="1">
      <mxGeometry x="290" y="790" width="40" height="30" as="geometry" />
    </mxCell>
    <mxCell id="hsGsgdo6mn84bb9oTtZE-62" value="N" style="text;html=1;align=center;verticalAlign=middle;resizable=0;points=[];autosize=1;strokeColor=none;fillColor=none;fontSize=16;" parent="1" vertex="1">
      <mxGeometry x="490" y="790" width="40" height="30" as="geometry" />
    </mxCell>
    <mxCell id="hsGsgdo6mn84bb9oTtZE-87" value="" style="edgeStyle=none;curved=1;rounded=0;orthogonalLoop=1;jettySize=auto;html=1;fontSize=12;startSize=8;endSize=8;exitX=0.5;exitY=1;exitDx=0;exitDy=0;" parent="1" source="0mnWKzgH_Vck4e7YlUkJ-22" target="hsGsgdo6mn84bb9oTtZE-46" edge="1">
      <mxGeometry relative="1" as="geometry">
        <mxPoint x="610" y="1040.0000000000002" as="sourcePoint" />
      </mxGeometry>
    </mxCell>
    <mxCell id="hsGsgdo6mn84bb9oTtZE-86" value="" style="edgeStyle=none;curved=1;rounded=0;orthogonalLoop=1;jettySize=auto;html=1;fontSize=12;startSize=8;endSize=8;exitX=0.5;exitY=1;exitDx=0;exitDy=0;" parent="1" source="0mnWKzgH_Vck4e7YlUkJ-23" target="hsGsgdo6mn84bb9oTtZE-30" edge="1">
      <mxGeometry relative="1" as="geometry">
        <mxPoint x="200" y="1040.0000000000002" as="sourcePoint" />
      </mxGeometry>
    </mxCell>
    <mxCell id="0mnWKzgH_Vck4e7YlUkJ-6" value="Y" style="text;html=1;align=center;verticalAlign=middle;resizable=0;points=[];autosize=1;strokeColor=none;fillColor=none;" vertex="1" parent="1">
      <mxGeometry x="200" y="890" width="30" height="30" as="geometry" />
    </mxCell>
    <mxCell id="0mnWKzgH_Vck4e7YlUkJ-7" value="Y" style="text;html=1;align=center;verticalAlign=middle;resizable=0;points=[];autosize=1;strokeColor=none;fillColor=none;" vertex="1" parent="1">
      <mxGeometry x="580" y="890" width="30" height="30" as="geometry" />
    </mxCell>
    <mxCell id="0mnWKzgH_Vck4e7YlUkJ-16" style="edgeStyle=orthogonalEdgeStyle;rounded=0;orthogonalLoop=1;jettySize=auto;html=1;entryX=1;entryY=0.5;entryDx=0;entryDy=0;" edge="1" parent="1" source="0mnWKzgH_Vck4e7YlUkJ-10" target="hsGsgdo6mn84bb9oTtZE-43">
      <mxGeometry relative="1" as="geometry">
        <Array as="points">
          <mxPoint x="710" y="1270" />
          <mxPoint x="710" y="735" />
        </Array>
      </mxGeometry>
    </mxCell>
    <mxCell id="0mnWKzgH_Vck4e7YlUkJ-10" value="เลขคู่ i" style="shape=parallelogram;perimeter=parallelogramPerimeter;whiteSpace=wrap;html=1;fixedSize=1;rounded=0;" vertex="1" parent="1">
      <mxGeometry x="550" y="1240" width="120" height="60" as="geometry" />
    </mxCell>
    <mxCell id="0mnWKzgH_Vck4e7YlUkJ-17" style="edgeStyle=orthogonalEdgeStyle;rounded=0;orthogonalLoop=1;jettySize=auto;html=1;entryX=0;entryY=0.5;entryDx=0;entryDy=0;" edge="1" parent="1" source="0mnWKzgH_Vck4e7YlUkJ-12" target="hsGsgdo6mn84bb9oTtZE-33">
      <mxGeometry relative="1" as="geometry">
        <Array as="points">
          <mxPoint x="110" y="1270" />
          <mxPoint x="110" y="735" />
        </Array>
      </mxGeometry>
    </mxCell>
    <mxCell id="0mnWKzgH_Vck4e7YlUkJ-12" value="เลขคี่ i" style="shape=parallelogram;perimeter=parallelogramPerimeter;whiteSpace=wrap;html=1;fixedSize=1;" vertex="1" parent="1">
      <mxGeometry x="140" y="1240" width="120" height="60" as="geometry" />
    </mxCell>
    <mxCell id="0mnWKzgH_Vck4e7YlUkJ-22" value="เลขคู่ i" style="rounded=0;whiteSpace=wrap;html=1;" vertex="1" parent="1">
      <mxGeometry x="550" y="980" width="120" height="60" as="geometry" />
    </mxCell>
    <mxCell id="0mnWKzgH_Vck4e7YlUkJ-23" value="เลขคี่ i" style="rounded=0;whiteSpace=wrap;html=1;" vertex="1" parent="1">
      <mxGeometry x="140" y="980" width="120" height="60" as="geometry" />
    </mxCell>
  </root>
</mxGraphModel>
